<?xml version="1.0" encoding="utf-8"?>
<!-- Generator: Adobe Illustrator 22.1.0, SVG Export Plug-In . SVG Version: 6.00 Build 0)  -->
<svg version="1.1" id="Capa_1" xmlns="http://www.w3.org/2000/svg" xmlns:xlink="http://www.w3.org/1999/xlink" x="0px" y="0px"
	 viewBox="0 0 539 539" style="enable-background:new 0 0 539 539;" xml:space="preserve">
<style type="text/css">
	.st0{fill:#E6AF29;stroke:#000000;stroke-width:15.1433;stroke-miterlimit:10;}
	.st1{fill:#828F22;}
	.st2{fill:none;stroke:#000000;stroke-width:7.5716;stroke-miterlimit:10;}
	.st3{fill:#EFF038;stroke:#000000;stroke-width:7.5716;stroke-miterlimit:10;}
</style>
<g>
	<path id="_Path__1_" class="st0" d="M80.4,66.1c-95.7,77.6-88.3,259.7-18.6,351.4c82.9,109.1,303.4,184.2,470.8,0
		c15.4-17,0-35.2-15.9-28.4C300.5,482.3,106.8,216.9,128.3,85.7c8-48.6,28.3-83.9-13.3-83.9S80.4,66.1,80.4,66.1z"/>
	<path class="st1" d="M108.9,65.8c-7.4,0.2-14.7-1.4-21.3-4.7c-0.5-9.5,0-32.4,9.4-43.7c3.9-5,9.8-8,16.2-8.3
		c7.6,0,14.3,0.8,17.4,4.5c4.5,5.6,0.5,23.5-3.6,41c-0.7,2.9-1.3,6.3-2,9.3C119.7,65.4,114.3,66,108.9,65.8z"/>
	<path class="st2" d="M82.1,61.9c8.7,8.6,41.6,7.2,48.6,4.7"/>
	<path class="st3" d="M128.9,70.5C60.4,55.6,53.2,253,120.7,340.2c93.5,120.8,263.1,154.6,412.7,53.4c-4.4-5.1-7.6-11.6-16.1-8.5
		c-51.6,18.9-175.7,55.4-300.6-81.6C119.9,197.3,128.9,104.2,128.9,70.5z"/>
</g>
</svg>
