<?xml version="1.0" ?><svg data-name="Layer 1" id="Layer_1" viewBox="0 0 272 272" xmlns="http://www.w3.org/2000/svg"><defs><style>.cls-1{fill:#8bc24a;}.cls-2{fill:#e91d62;}.cls-3{fill:#efefef;}</style></defs><title/><path class="cls-1" d="M9,84a128,128,0,0,0,254,0Z"/><path class="cls-2" d="M136,188A120.17,120.17,0,0,1,17.07,84H254.93A120.17,120.17,0,0,1,136,188Z"/><path class="cls-3" d="M132,106c0,4.42,1.79,6,4,6s4-1.58,4-6-4-10-4-10S132,101.58,132,106Z"/><path class="cls-3" d="M157.85,106.49c2.53,3.62,4.91,3.89,6.72,2.62s2.37-3.59-.16-7.21-9-5.9-9-5.9S155.31,102.87,157.85,106.49Z"/><path class="cls-3" d="M112.66,106.49c-2.53,3.62-4.91,3.89-6.72,2.62s-2.37-3.59.16-7.21,9-5.9,9-5.9S115.19,102.87,112.66,106.49Z"/></svg>